<svg width="200" height="200" xmlns="http://www.w3.org/2000/svg" style="vector-effect: non-scaling-stroke;" stroke="null">
 <!-- Created with Method Draw - http://github.com/duopixel/Method-Draw/ -->

 <g stroke="null">
  <title style="vector-effect: non-scaling-stroke;" stroke="null">background</title>
  <rect stroke="null" fill="#fff" id="canvas_background" height="202" width="202" y="-1" x="-1"/>
  <g style="vector-effect: non-scaling-stroke;" stroke="null" display="none" overflow="visible" y="0" x="0" height="100%" width="100%" id="canvasGrid">
   <rect stroke="null" fill="url(#gridpattern)" stroke-width="0" y="0" x="0" height="100%" width="100%"/>
  </g>
 </g>
 <g stroke="null">
  <title style="vector-effect: non-scaling-stroke;" stroke="null">Layer 1</title>
  <defs style="vector-effect: non-scaling-stroke;" stroke="null">
   <style style="vector-effect: non-scaling-stroke;" stroke="null" type="text/css"/>
  </defs>
  <defs style="vector-effect: non-scaling-stroke;" stroke="null">
   <style style="vector-effect: non-scaling-stroke;" stroke="null" type="text/css"/>
  </defs>
  <defs style="vector-effect: non-scaling-stroke;" stroke="null">
   <style style="vector-effect: non-scaling-stroke;" stroke="null" type="text/css"/>
  </defs>
  <g stroke="null" id="svg_16">
   <path stroke="null" id="svg_14" fill="#8a8a8a" p-id="2822" d="m181.957044,-0.000001l-164.017618,0c-9.738546,0 -17.939427,8.423142 -17.939427,18.425623l0,126.347127c0,10.002481 8.200881,18.425623 17.939427,18.425623l36.391409,0l0,28.95455c0,3.158678 2.05022,6.317356 4.612995,7.370249c1.02511,0.526446 2.05022,0.526446 3.07533,0.526446c2.05022,0 4.100441,-1.052893 5.638106,-2.632232l32.803523,-34.219014l81.496254,0c9.738546,0 17.939427,-8.423142 17.939427,-18.425623l0,-126.347127c0,-10.002481 -8.200881,-18.425623 -17.939427,-18.425623zm2.562775,144.77275c0,1.579339 -1.02511,2.632232 -2.562775,2.632232l-84.571584,0c-2.05022,0 -4.100441,1.052893 -5.638105,2.632232l-21.527312,23.16364l0,-17.899176c0,-4.211571 -3.587885,-7.896695 -7.688326,-7.896695l-44.59229,0c-1.537665,0 -2.562775,-1.052893 -2.562775,-2.632232l0,-126.347127c0,-1.579339 1.02511,-2.632232 2.562775,-2.632232l164.017618,0c1.537665,0 2.562775,1.052893 2.562775,2.632232l0,126.347127z"/>
   <path stroke="null" id="svg_15" fill="#8a8a8a" p-id="2823" d="m99.948235,86.863649l-51.255505,0c-4.100441,0 -7.688326,3.685124 -7.688326,7.896695s3.587885,7.896695 7.688326,7.896695l51.255505,0c4.100441,0 7.688326,-3.685124 7.688326,-7.896695s-3.587885,-7.896695 -7.688326,-7.896695zm38.441629,-36.851246l-89.697135,0c-4.100441,0 -7.688326,3.685124 -7.688326,7.896695s3.587885,7.896695 7.688326,7.896695l89.697135,0c4.100441,0 7.688326,-3.685124 7.688326,-7.896695s-3.587885,-7.896695 -7.688326,-7.896695z"/>
  </g>
 </g>
</svg>