<svg width="200" height="200" xmlns="http://www.w3.org/2000/svg" style="vector-effect: non-scaling-stroke;" stroke="null">
 <!-- Created with Method Draw - http://github.com/duopixel/Method-Draw/ -->

 <g stroke="null">
  <title style="vector-effect: non-scaling-stroke;" stroke="null">background</title>
  <rect stroke="null" fill="#fff" id="canvas_background" height="202" width="202" y="-1" x="-1"/>
  <g style="vector-effect: non-scaling-stroke;" stroke="null" display="none" overflow="visible" y="0" x="0" height="100%" width="100%" id="canvasGrid">
   <rect stroke="null" fill="url(#gridpattern)" stroke-width="0" y="0" x="0" height="100%" width="100%"/>
  </g>
 </g>
 <g stroke="null">
  <title style="vector-effect: non-scaling-stroke;" stroke="null">Layer 1</title>
  <defs style="vector-effect: non-scaling-stroke;" stroke="null">
   <style style="vector-effect: non-scaling-stroke;" stroke="null" type="text/css"/>
  </defs>
  <defs style="vector-effect: non-scaling-stroke;" stroke="null">
   <style style="vector-effect: non-scaling-stroke;" stroke="null" type="text/css"/>
  </defs>
  <defs style="vector-effect: non-scaling-stroke;" stroke="null">
   <style style="vector-effect: non-scaling-stroke;" stroke="null" type="text/css"/>
  </defs>
  <defs>
   <style type="text/css"/>
  </defs>
  <g stroke="null" style="vector-effect: non-scaling-stroke;" transform="translate(-0.0000013212072644819273,-0.0000018973329360960633) scale(1.0926557779312134,1) translate(0.0000013212072644819273,0.0000018973329360960633) " id="svg_21">
   <path stroke="null" style="vector-effect: non-scaling-stroke;" id="svg_20" fill="#1296db" p-id="3232" d="m166.581479,-0.000002l-150.157954,0c-8.915628,0 -16.423526,8.414829 -16.423526,18.407439l0,127.274293c0.469244,9.466683 7.507898,17.355585 16.423526,17.355585l33.316296,0l0,29.451903c0.469244,6.837049 7.977141,9.466683 12.200334,4.733341l30.031591,-34.185244l74.609733,0c8.915628,0 16.423526,-8.414829 16.423526,-18.407439l0,-126.222439c0,-9.99261 -7.507898,-18.407439 -16.423526,-18.407439zm-74.609733,102.555732l-47.393604,0c-3.753949,0 -7.038654,-3.681488 -7.038654,-7.888902s2.815462,-7.362976 6.56941,-7.888902l47.393604,0c3.753949,0 7.038654,3.681488 7.038654,7.888902s-2.815462,7.362976 -6.569411,7.888902zm35.19327,-36.814878l-82.586874,0c-3.753949,0 -7.038654,-3.681488 -7.038654,-7.888902s2.815462,-7.362976 6.56941,-7.888902l82.586875,0c3.753949,0 7.038654,3.681488 7.038654,7.888902s-2.815462,7.362976 -6.569411,7.888902z"/>
  </g>
 </g>
</svg>