<svg width="200" height="200" xmlns="http://www.w3.org/2000/svg" style="vector-effect: non-scaling-stroke;" stroke="null">
 <!-- Created with Method Draw - http://github.com/duopixel/Method-Draw/ -->

 <g stroke="null">
  <title style="vector-effect: non-scaling-stroke;" stroke="null">background</title>
  <rect stroke="null" fill="#fff" id="canvas_background" height="202" width="202" y="-1" x="-1"/>
  <g style="vector-effect: non-scaling-stroke;" stroke="null" display="none" overflow="visible" y="0" x="0" height="100%" width="100%" id="canvasGrid">
   <rect stroke="null" fill="url(#gridpattern)" stroke-width="0" y="0" x="0" height="100%" width="100%"/>
  </g>
 </g>
 <g stroke="null">
  <title style="vector-effect: non-scaling-stroke;" stroke="null">Layer 1</title>
  <defs style="vector-effect: non-scaling-stroke;" stroke="null">
   <style style="vector-effect: non-scaling-stroke;" stroke="null" type="text/css"/>
  </defs>
  <defs style="vector-effect: non-scaling-stroke;" stroke="null">
   <style style="vector-effect: non-scaling-stroke;" stroke="null" type="text/css"/>
  </defs>
  <defs style="vector-effect: non-scaling-stroke;" stroke="null">
   <style style="vector-effect: non-scaling-stroke;" stroke="null" type="text/css"/>
  </defs>
  <defs>
   <style type="text/css"/>
  </defs>
  <defs>
   <style type="text/css"/>
  </defs>
  <!-- Created with Method Draw - http://github.com/duopixel/Method-Draw/ -->
  <g stroke="null" id="svg_43">
   <path stroke="null" id="svg_42" fill="#8a8a8a" p-id="6464" d="m150.22305,0.098858c8.109836,0 15.054687,4.918931 17.912439,11.888998l12.319227,0a19.309133,18.99201 0 0 1 19.309133,18.99201l0,28.589305a48.388687,47.593976 0 0 1 -34.994585,45.732759a69.596551,68.453533 0 0 1 -55.114701,42.814321l0,9.002213l17.552002,0l1.454621,0.031653c17.35891,0.721696 31.428832,14.338967 32.349234,31.741979l0.296074,11.009035l-122.355538,0l0,-9.496005a33.842473,33.286662 0 0 1 33.842473,-33.286662l17.552002,0l0,-8.995882a69.61586,68.472525 0 0 1 -55.121138,-42.820651a48.388687,47.593976 0 0 1 -34.988149,-45.732759l0,-28.582975a19.309133,18.99201 0 0 1 19.309133,-18.99201l12.319227,-0.006331a19.315569,18.99834 0 0 1 17.912439,-11.888998l100.446109,0zm-23.016486,176.011615l-54.413136,0c-4.318809,0 -8.199945,1.854886 -10.864605,4.798648l76.142347,0l-0.759492,-0.778672a14.501159,14.262999 0 0 0 -10.105113,-4.019975zm-77.429622,-95.72606a50.422582,49.594468 0 0 0 1.313021,11.274923l-0.199528,-0.892624a49.881926,49.062692 0 0 0 0.997639,3.830055l-0.418365,-1.437062a49.856181,49.037369 0 0 0 1.930913,5.691272l-0.547092,-1.399078c0.244582,0.645728 0.495601,1.285126 0.765929,1.911862l-0.218837,-0.519115c0.315382,0.75968 0.643638,1.519361 0.997639,2.260049l-0.778802,-1.740934c0.30251,0.721696 0.624329,1.430731 0.965457,2.127105l-0.193091,-0.37984c0.30251,0.633067 0.611456,1.253473 0.939711,1.873878l-0.753056,-1.494038c0.308946,0.633067 0.624329,1.266134 0.95902,1.880209l-0.205964,-0.386171c0.74662,1.430731 1.56404,2.817148 2.445824,4.165581l0.167346,0.240565a50.178,49.353903 0 0 0 42.055291,22.391579a50.178,49.353903 0 0 0 42.055291,-22.391579l0.167346,-0.240565a50.184436,49.360233 0 0 0 2.445824,-4.165581l-0.205964,0.386171c0.334692,-0.620406 0.656511,-1.247142 0.965457,-1.88654l-0.759492,1.500369a50.010654,49.189305 0 0 0 0.933275,-1.873878l-0.180218,0.37984a49.94629,49.125998 0 0 0 0.95902,-2.120775l-0.778802,1.740934c0.354001,-0.747019 0.682256,-1.500369 0.997639,-2.272711l-0.218837,0.531776c0.263892,-0.633067 0.521347,-1.272465 0.765929,-1.918193l-0.547092,1.392747c0.566401,-1.392747 1.074875,-2.804487 1.512549,-4.247879l-0.1416,0.455808c0.193091,-0.626736 0.386183,-1.253473 0.559965,-1.899201l-0.418365,1.443393a49.843308,49.024708 0 0 0 0.997639,-3.830055l-0.199528,0.886294c0.128728,-0.525446 0.244582,-1.063553 0.354001,-1.60166l-0.154473,0.715366c0.173782,-0.797664 0.328255,-1.595329 0.463419,-2.405655l-0.308946,1.690289a50.4612,49.632452 0 0 0 0.95902,-9.666933l0,-61.293546l-100.446109,0l0,61.293546zm-19.315569,-49.404548l-10.916096,0l0,28.589305c0,9.046527 4.267318,17.10547 10.935405,22.347265l-0.012873,-1.532022l-0.006437,-49.404548zm139.070811,49.404548l-0.012873,1.525692a29.008754,28.532329 0 0 0 10.935405,-22.347265l0,-28.570313l-10.922533,-0.006331l0,49.404548l0,-0.006331z"/>
  </g>
 </g>
</svg>