<svg width="200" height="200" xmlns="http://www.w3.org/2000/svg" style="vector-effect: non-scaling-stroke;" stroke="null">
 <!-- Created with Method Draw - http://github.com/duopixel/Method-Draw/ -->

 <g stroke="null">
  <title style="vector-effect: non-scaling-stroke;" stroke="null">background</title>
  <rect stroke="null" fill="#fff" id="canvas_background" height="202" width="202" y="-1" x="-1"/>
  <g style="vector-effect: non-scaling-stroke;" stroke="null" display="none" overflow="visible" y="0" x="0" height="100%" width="100%" id="canvasGrid">
   <rect stroke="null" fill="url(#gridpattern)" stroke-width="0" y="0" x="0" height="100%" width="100%"/>
  </g>
 </g>
 <g stroke="null">
  <title style="vector-effect: non-scaling-stroke;" stroke="null">Layer 1</title>
  <defs style="vector-effect: non-scaling-stroke;" stroke="null">
   <style style="vector-effect: non-scaling-stroke;" stroke="null" type="text/css"/>
  </defs>
  <defs style="vector-effect: non-scaling-stroke;" stroke="null">
   <style style="vector-effect: non-scaling-stroke;" stroke="null" type="text/css"/>
  </defs>
  <defs style="vector-effect: non-scaling-stroke;" stroke="null">
   <style style="vector-effect: non-scaling-stroke;" stroke="null" type="text/css"/>
  </defs>
  <defs>
   <style type="text/css"/>
  </defs>
  <g stroke="null" id="svg_23">
   <path stroke="null" id="svg_22" fill="#1296db" p-id="7090" d="m150.418127,0.266312c8.118272,0 15.070348,4.912828 17.931072,11.874248l12.332042,0a19.329219,18.968448 0 0 1 19.329219,18.968448l0,28.553837a48.439023,47.53493 0 0 1 -35.030988,45.676022a69.668949,68.368609 0 0 1 -55.172034,42.761204l0,8.991044l17.57026,0l1.456134,0.031614c17.376968,0.720801 31.461526,14.321178 32.382885,31.702599l0.296382,10.995377l-122.482818,0l0,-9.484224a33.877678,33.245366 0 0 1 33.877678,-33.245366l17.57026,0l0,-8.984722a69.688278,68.387577 0 0 1 -55.178477,-42.767527a48.439023,47.53493 0 0 1 -35.024545,-45.676022l0,-28.547514a19.329219,18.968448 0 0 1 19.329219,-18.968448l12.332042,-0.006323a19.335662,18.974771 0 0 1 17.931072,-11.874248l100.550598,0zm-119.88626,30.842696l-10.927452,0l0,28.553837c0,9.035304 4.271757,17.084249 10.946781,22.31954l-0.012886,-1.530122l-0.006443,-49.343255zm139.215479,49.343255l-0.012886,1.523799a29.03893,28.496931 0 0 0 10.946781,-22.31954l0,-28.534868l-10.933895,-0.006323l0,49.343256l0,-0.006323z"/>
  </g>
 </g>
</svg>