<svg width="200" height="200" xmlns="http://www.w3.org/2000/svg">
 <!-- Created with Method Draw - http://github.com/duopixel/Method-Draw/ -->

 <g>
  <title>background</title>
  <rect fill="#fff" id="canvas_background" height="202" width="202" y="-1" x="-1"/>
  <g display="none" overflow="visible" y="0" x="0" height="100%" width="100%" id="canvasGrid">
   <rect fill="url(#gridpattern)" stroke-width="0" y="0" x="0" height="100%" width="100%"/>
  </g>
 </g>
 <g>
  <title>Layer 1</title>
  <defs>
   <style type="text/css"/>
  </defs>
  <defs>
   <style type="text/css"/>
  </defs>
  <defs>
   <style type="text/css"/>
  </defs>
  <defs>
   <style type="text/css"/>
  </defs>
  <defs>
   <style type="text/css"/>
  </defs>
  <defs>
   <style type="text/css"/>
  </defs>
  <g stroke="null" id="svg_37">
   <path stroke="null" id="svg_36" fill="#1296db" p-id="7379" d="m0.000004,58.516239l92.221629,36.048894l0,105.36057l-81.080006,-32.733988a18.756942,17.057837 0 0 1 -11.141623,-15.596549l0,-93.078928zm200.074044,-2.177717l0,95.256645a18.756942,17.057837 0 0 1 -11.141623,15.590863l-77.953849,31.477395l0,-104.990984l89.095473,-37.339604l0,0.005686zm-92.421704,-54.869374l81.28008,32.824963c2.826046,1.137189 5.233187,2.871402 7.077619,4.986574l-95.178974,40.085916l-98.098805,-38.346017c1.938217,-2.911204 4.845543,-5.287929 8.409362,-6.726474l81.28008,-32.824963a18.756942,17.057837 0 0 1 15.230637,0z"/>
  </g>
 </g>
</svg>