<svg width="200" height="200" xmlns="http://www.w3.org/2000/svg" style="vector-effect: non-scaling-stroke;" stroke="null">
 <!-- Created with Method Draw - http://github.com/duopixel/Method-Draw/ -->

 <g stroke="null">
  <title style="vector-effect: non-scaling-stroke;" stroke="null">background</title>
  <rect stroke="null" fill="#fff" id="canvas_background" height="202" width="202" y="-1" x="-1"/>
  <g style="vector-effect: non-scaling-stroke;" stroke="null" display="none" overflow="visible" y="0" x="0" height="100%" width="100%" id="canvasGrid">
   <rect stroke="null" fill="url(#gridpattern)" stroke-width="0" y="0" x="0" height="100%" width="100%"/>
  </g>
 </g>
 <g stroke="null">
  <title style="vector-effect: non-scaling-stroke;" stroke="null">Layer 1</title>
  <defs style="vector-effect: non-scaling-stroke;" stroke="null">
   <style style="vector-effect: non-scaling-stroke;" stroke="null" type="text/css"/>
  </defs>
  <defs style="vector-effect: non-scaling-stroke;" stroke="null">
   <style style="vector-effect: non-scaling-stroke;" stroke="null" type="text/css"/>
  </defs>
  <defs style="vector-effect: non-scaling-stroke;" stroke="null">
   <style style="vector-effect: non-scaling-stroke;" stroke="null" type="text/css"/>
  </defs>
  <defs>
   <style type="text/css"/>
  </defs>
  <defs>
   <style type="text/css"/>
  </defs>
  <g stroke="null" id="svg_26">
   <path stroke="null" id="svg_25" fill="#8a8a8a" p-id="6464" d="m107.499292,1.450607l81.164525,32.542425a18.730275,16.908083 0 0 1 11.125783,15.453988l0,100.817265a18.730275,16.908083 0 0 1 -11.125783,15.453988l-81.164525,32.536789a18.730275,16.908083 0 0 1 -15.208983,0l-81.164525,-32.536789a18.730275,16.908083 0 0 1 -11.125783,-15.453988l0,-100.817265a18.730275,16.908083 0 0 1 11.125783,-15.453988l81.164525,-32.536789a18.730275,16.908083 0 0 1 15.208983,0l0,-0.005636zm-88.769017,63.912555l0,84.901122l73.360244,29.408793l0,-85.932516l-73.360244,-28.3774zm162.329051,0.608691l-70.238532,27.165654l0,85.284372l70.238532,-28.157595l0,-84.292431zm-81.164525,-49.061622l-78.017839,31.274318l78.810754,30.49091l77.999109,-30.180929l-78.792024,-31.5843z"/>
  </g>
 </g>
</svg>