<svg width="200" height="200" xmlns="http://www.w3.org/2000/svg">
 <!-- Created with Method Draw - http://github.com/duopixel/Method-Draw/ -->

 <g>
  <title>background</title>
  <rect fill="#fff" id="canvas_background" height="202" width="202" y="-1" x="-1"/>
  <g display="none" overflow="visible" y="0" x="0" height="100%" width="100%" id="canvasGrid">
   <rect fill="url(#gridpattern)" stroke-width="0" y="0" x="0" height="100%" width="100%"/>
  </g>
 </g>
 <g>
  <title>Layer 1</title>
  <defs>
   <style type="text/css"/>
  </defs>
  <defs>
   <style type="text/css"/>
  </defs>
  <defs>
   <style type="text/css"/>
  </defs>
  <defs>
   <style type="text/css"/>
  </defs>
  <defs>
   <style type="text/css"/>
  </defs>
  <defs>
   <style type="text/css"/>
  </defs>
  <defs>
   <style type="text/css"/>
  </defs>
  <defs>
   <style type="text/css"/>
  </defs>
  <g stroke="null" id="svg_49">
   <path stroke="null" id="svg_47" fill="#1296db" p-id="4249" d="m70.89936,128.790014l43.674165,-14.519548l14.558055,-43.558643l-43.674165,14.519548l-14.558055,43.558643z"/>
   <path stroke="null" id="svg_48" fill="#1296db" p-id="4250" d="m192.168339,60.921093c-5.037833,-11.879265 -12.248323,-22.546156 -21.431216,-31.704983c-9.183117,-9.158604 -19.878298,-16.350021 -31.789068,-21.374529c-12.33472,-5.203079 -25.433844,-7.84158 -38.932584,-7.84158s-26.597864,2.638501 -38.932807,7.841803c-11.910771,5.024284 -22.605952,12.215925 -31.789068,21.374529c-9.182893,9.158604 -16.393384,19.825717 -21.431216,31.70476c-5.216878,12.302539 -7.862377,25.366792 -7.862377,38.829826c0,13.463257 2.645498,26.527509 7.8626,38.829826c5.037609,11.879265 12.248323,22.546379 21.431216,31.704983s19.878298,16.350021 31.788845,21.374529c12.335167,5.203079 25.434068,7.84158 38.932807,7.84158c13.498963,0 26.597864,-2.638501 38.932807,-7.841803c11.910771,-5.024507 22.606175,-12.215925 31.789068,-21.374529c9.182893,-9.158826 16.393384,-19.825717 21.431216,-31.704983c5.216878,-12.302094 7.862377,-25.366569 7.862377,-38.829603s-2.645498,-26.527509 -7.8626,-38.829826zm-44.596406,-1.475779c0,0.057891 0,0.115782 -0.002232,0.173673c0,0.064571 -0.004465,0.129142 -0.006697,0.193713c-0.004465,0.051211 -0.004465,0.100196 -0.00893,0.151408c-0.006697,0.073477 -0.013395,0.146954 -0.022325,0.220432c-0.002232,0.042305 -0.006697,0.082384 -0.011162,0.124689c-0.011162,0.086837 -0.024557,0.173673 -0.037952,0.258284l-0.013395,0.086837c-0.020092,0.109103 -0.042417,0.220432 -0.064742,0.329534c-0.002232,0.004453 -0.002232,0.008906 -0.004465,0.011133c-0.05358,0.240471 -0.118322,0.476489 -0.196459,0.708053l-20.192855,60.420555c-0.060277,0.178127 -0.127252,0.3518 -0.198691,0.523247c-0.011162,0.028946 -0.022325,0.057891 -0.03572,0.086837c-0.06251,0.144728 -0.129484,0.287229 -0.203156,0.427504a7.784686,7.764095 0 0 1 -0.287991,0.509887c-0.029022,0.044532 -0.058045,0.089063 -0.087067,0.131368c-0.06251,0.09797 -0.129484,0.193713 -0.198691,0.289456c-0.031255,0.042305 -0.06251,0.086837 -0.095997,0.129142c-0.0893,0.118009 -0.180832,0.231565 -0.279061,0.342894c-0.029022,0.035625 -0.060277,0.069024 -0.091532,0.102423c-0.102694,0.115782 -0.207621,0.227111 -0.319246,0.336214c-0.004465,0.002227 -0.006697,0.00668 -0.011162,0.008906c-0.120554,0.120235 -0.250039,0.233791 -0.381755,0.342894l-0.049115,0.042305c-0.267899,0.220432 -0.553657,0.423051 -0.855043,0.603404a7.00019,6.981674 0 0 1 -0.486682,0.269417l-0.040185,0.020039c-0.133949,0.064571 -0.272364,0.126915 -0.410778,0.184806c-0.031255,0.013359 -0.06251,0.026719 -0.095997,0.040078c-0.131717,0.051211 -0.265666,0.102423 -0.401848,0.146954l-0.07144,0.024492c-0.004465,0.002227 -0.006697,0.002227 -0.00893,0.004453l-60.538381,20.123857c-0.00893,0.004453 -0.020092,0.00668 -0.029022,0.008906c-0.140647,0.046758 -0.283526,0.086837 -0.428638,0.124689c-0.040185,0.008906 -0.078137,0.022266 -0.118322,0.033399c-0.165204,0.040078 -0.330408,0.071251 -0.497845,0.100196c-0.020092,0.002227 -0.040185,0.008906 -0.060277,0.011133c-0.368361,0.060118 -0.743419,0.09129 -1.122942,0.09129l-0.002232,0c-0.379523,0 -0.754581,-0.031172 -1.122942,-0.09129c-0.024557,-0.002227 -0.049115,-0.008906 -0.075905,-0.013359c-0.160739,-0.028946 -0.323711,-0.060118 -0.482217,-0.09797c-0.040185,-0.011133 -0.08037,-0.024492 -0.120554,-0.033399c-0.142879,-0.037852 -0.285758,-0.07793 -0.426405,-0.124689a0.164534,0.164099 0 0 1 -0.031255,-0.008906c-0.136182,-0.044532 -0.267899,-0.093516 -0.399615,-0.146954c-0.033487,-0.013359 -0.066975,-0.026719 -0.098229,-0.040078c-0.138414,-0.057891 -0.272364,-0.120235 -0.406313,-0.184806c-0.015627,-0.00668 -0.031255,-0.013359 -0.04465,-0.022266c-0.156274,-0.07793 -0.308083,-0.160314 -0.455428,-0.247151l-0.033487,-0.020039c-0.299153,-0.18258 -0.582679,-0.382972 -0.850578,-0.601177l-0.05358,-0.046758c-0.129484,-0.109103 -0.256736,-0.220432 -0.37729,-0.338441l-0.01786,-0.017813c-0.107159,-0.104649 -0.212086,-0.215979 -0.312548,-0.327308c-0.031255,-0.035625 -0.06251,-0.069024 -0.093765,-0.106876a5.733923,5.718756 0 0 1 -0.375058,-0.472036c-0.066975,-0.093516 -0.133949,-0.187033 -0.196459,-0.282776c-0.029022,-0.046758 -0.060277,-0.093516 -0.091532,-0.140275c-0.073672,-0.120235 -0.145112,-0.242698 -0.212086,-0.367386l-0.073672,-0.140275c-0.07144,-0.138048 -0.140647,-0.280549 -0.200924,-0.423051c-0.013395,-0.028946 -0.02679,-0.060118 -0.037952,-0.089063c-0.160739,-0.385199 -0.290223,-0.781531 -0.381755,-1.191222l-0.006697,-0.026719c-0.022325,-0.104649 -0.042417,-0.209299 -0.06251,-0.316175l-0.013395,-0.09129c-0.013395,-0.08461 -0.02679,-0.166994 -0.03572,-0.251604c-0.006697,-0.044532 -0.00893,-0.086837 -0.013395,-0.129142c-0.00893,-0.073477 -0.015627,-0.144728 -0.022325,-0.218205l-0.006697,-0.153634c-0.004465,-0.062344 -0.00893,-0.126915 -0.00893,-0.191486c-0.002232,-0.057891 -0.002232,-0.115782 -0.002232,-0.173673s0,-0.115782 0.002232,-0.173673c0,-0.064571 0.004465,-0.129142 0.00893,-0.193713l0.006697,-0.153634c0.006697,-0.071251 0.013395,-0.144728 0.022325,-0.215979c0.004465,-0.042305 0.006697,-0.08461 0.013395,-0.129142c0.00893,-0.08461 0.022325,-0.16922 0.03572,-0.251604l0.013395,-0.09129c0.020092,-0.106876 0.040185,-0.211525 0.06251,-0.316175a6.986572,6.968091 0 0 1 0.203156,-0.730319l20.195088,-60.427235c0.040185,-0.120235 0.082602,-0.238244 0.129484,-0.356253c0.020092,-0.053438 0.042417,-0.104649 0.064742,-0.155861c0.022325,-0.053438 0.042417,-0.106876 0.066975,-0.158087c0.033487,-0.075704 0.069207,-0.151408 0.104927,-0.224885c0.013395,-0.026719 0.024557,-0.053438 0.037952,-0.080157c0.04465,-0.086837 0.0893,-0.16922 0.133949,-0.25383l0.02679,-0.046758c0.049115,-0.086837 0.100462,-0.173673 0.154042,-0.258284l0.020092,-0.033399c0.05358,-0.08461 0.109392,-0.16922 0.167437,-0.251604c0.006697,-0.013359 0.015627,-0.024492 0.024557,-0.035625c0.05358,-0.080157 0.111624,-0.158087 0.169669,-0.233791c0.013395,-0.015586 0.024557,-0.033399 0.037952,-0.048985c0.05358,-0.069024 0.109392,-0.138048 0.165204,-0.204846l0.060277,-0.073477c0.049115,-0.055665 0.100462,-0.113556 0.151809,-0.16922l0.091532,-0.09797c0.042417,-0.044532 0.087067,-0.089063 0.129484,-0.131368s0.084835,-0.08461 0.127252,-0.124689l0.104927,-0.09797c0.05358,-0.048985 0.109392,-0.09797 0.165204,-0.144728c0.024557,-0.022266 0.051347,-0.044532 0.078137,-0.066797c0.064742,-0.053438 0.131717,-0.106876 0.198691,-0.160314c0.01786,-0.013359 0.037952,-0.026719 0.055812,-0.040078c0.073672,-0.057891 0.149577,-0.113556 0.227714,-0.166994l0.042417,-0.028946c0.08037,-0.055665 0.162972,-0.109103 0.247806,-0.162541c0.011162,-0.008906 0.024557,-0.015586 0.037952,-0.024492c0.082602,-0.051211 0.167437,-0.100196 0.254504,-0.149181c0.01786,-0.011133 0.03572,-0.020039 0.05358,-0.028946c0.08037,-0.044532 0.162972,-0.089063 0.245574,-0.131368c0.031255,-0.013359 0.060277,-0.028946 0.091532,-0.042305c0.07144,-0.035625 0.142879,-0.069024 0.214319,-0.102423c0.055812,-0.024492 0.113857,-0.046758 0.169669,-0.069024c0.049115,-0.020039 0.098229,-0.042305 0.147344,-0.060118c0.118322,-0.046758 0.238876,-0.09129 0.361663,-0.131368l60.585263,-20.14167l0.004465,0c0.227714,-0.075704 0.459893,-0.140275 0.694304,-0.193713l0.064742,-0.013359c0.093765,-0.020039 0.185297,-0.037852 0.281294,-0.053438c0.03572,-0.00668 0.073672,-0.013359 0.111624,-0.017813c0.078137,-0.013359 0.154042,-0.024492 0.232179,-0.035625l0.142879,-0.013359c0.069207,-0.00668 0.136182,-0.015586 0.205389,-0.020039c0.05358,-0.004453 0.107159,-0.004453 0.158507,-0.008906c0.064742,-0.002227 0.127252,-0.00668 0.189761,-0.00668c0.058045,-0.002227 0.116089,-0.002227 0.174134,-0.002227s0.116089,0 0.174134,0.002227c0.06251,0 0.125019,0.004453 0.185297,0.00668c0.055812,0.004453 0.109392,0.004453 0.165204,0.008906c0.066975,0.004453 0.131717,0.013359 0.198691,0.020039c0.049115,0.004453 0.098229,0.008906 0.147344,0.015586c0.075905,0.008906 0.151809,0.020039 0.225481,0.031172c0.040185,0.00668 0.08037,0.011133 0.120554,0.020039c0.091532,0.015586 0.180832,0.033399 0.270131,0.053438l0.075905,0.013359c0.234411,0.053438 0.464358,0.118009 0.692071,0.193713l0.004465,0c0.031255,0.011133 0.060277,0.022266 0.091532,0.033399c0.078137,0.026719 0.154042,0.053438 0.229946,0.082384c0.073672,0.028946 0.147344,0.060118 0.218784,0.09129c0.031255,0.013359 0.064742,0.026719 0.095997,0.040078c0.091532,0.040078 0.178599,0.082384 0.265666,0.124689l0.040185,0.020039c0.098229,0.046758 0.191994,0.09797 0.285758,0.149181c0.004465,0.004453 0.00893,0.00668 0.013395,0.008906c0.098229,0.053438 0.194226,0.111329 0.287991,0.16922c0.002232,0.002227 0.004465,0.002227 0.006697,0.004453c0.093765,0.057891 0.185297,0.118009 0.274596,0.180353c0.004465,0.004453 0.00893,0.00668 0.013395,0.008906c0.087067,0.060118 0.169669,0.122462 0.252271,0.184806c0.011162,0.008906 0.022325,0.015586 0.033487,0.024492c0.073672,0.057891 0.147344,0.118009 0.221016,0.178127c0.01786,0.015586 0.037952,0.031172 0.055812,0.046758c0.06251,0.053438 0.125019,0.109103 0.185297,0.162541c0.02679,0.026719 0.055812,0.053438 0.084835,0.080157c0.049115,0.046758 0.095997,0.093516 0.145112,0.140275c0.037952,0.040078 0.075905,0.07793 0.113857,0.115782c0.03572,0.037852 0.07144,0.07793 0.104927,0.115782c0.046882,0.051211 0.093765,0.100196 0.138414,0.153634c0.024557,0.028946 0.049115,0.057891 0.073672,0.089063c0.051347,0.060118 0.102694,0.122462 0.151809,0.187033c0.01786,0.022266 0.033487,0.044532 0.051347,0.066797c0.05358,0.071251 0.107159,0.142501 0.158507,0.218205l0.03572,0.048985c0.05358,0.080157 0.104927,0.158087 0.156274,0.238244c0.011162,0.015586 0.020092,0.033399 0.029022,0.048985a5.493707,5.479175 0 0 1 0.180832,0.305042c0.042417,0.080157 0.084835,0.158087 0.125019,0.238244c0.01786,0.033399 0.031255,0.066797 0.049115,0.09797c0.031255,0.069024 0.064742,0.138048 0.095997,0.209299c0.02679,0.057891 0.051347,0.118009 0.075905,0.1759c0.01786,0.046758 0.037952,0.09129 0.055812,0.138048c0.131717,0.336214 0.236644,0.679108 0.317013,1.030908c0,0.004453 0,0.008906 0.002232,0.013359c0.024557,0.109103 0.04465,0.218205 0.064742,0.329534a10.511447,10.483643 0 0 1 0.051347,0.34512l0.013395,0.122462c0.006697,0.073477 0.015627,0.149181 0.020092,0.222658c0.004465,0.051211 0.004465,0.100196 0.00893,0.151408c0.002232,0.064571 0.006697,0.129142 0.00893,0.193713l0,0.173673z"/>
  </g>
 </g>
</svg>