<svg width="200" height="200" xmlns="http://www.w3.org/2000/svg">
 <!-- Created with Method Draw - http://github.com/duopixel/Method-Draw/ -->

 <g>
  <title>background</title>
  <rect fill="#fff" id="canvas_background" height="202" width="202" y="-1" x="-1"/>
  <g display="none" overflow="visible" y="0" x="0" height="100%" width="100%" id="canvasGrid">
   <rect fill="url(#gridpattern)" stroke-width="0" y="0" x="0" height="100%" width="100%"/>
  </g>
 </g>
 <g>
  <title>Layer 1</title>
  <defs>
   <style type="text/css"/>
  </defs>
  <defs>
   <style type="text/css"/>
  </defs>
  <g stroke="null" id="svg_10">
   <path stroke="null" id="svg_9" fill="#1296db" p-id="4427" d="m99.978176,0.000007c-55.109918,0 -99.97817,44.820274 -99.97817,99.871264s44.868252,99.871264 99.97817,99.871264s99.97817,-44.820274 99.97817,-99.871264s-44.868252,-99.871264 -99.97817,-99.871264zm0,36.538267c16.094047,0 29.261903,13.153776 29.261903,29.230614s-13.167856,29.230614 -29.261903,29.230614s-29.261903,-13.153776 -29.261903,-29.230614s13.167856,-29.230614 29.261903,-29.230614zm54.134521,115.948102c-5.364682,7.307653 -26.823411,22.897314 -54.134521,22.897314s-48.769839,-15.589661 -54.134521,-22.897314c-1.950793,-2.435885 -2.438492,-4.871769 -1.950793,-7.307653c6.827778,-25.333199 29.749602,-42.871567 56.085315,-42.871567s49.257537,17.538368 56.085315,42.871567c0.487698,2.435885 0,4.871769 -1.950793,7.307653z"/>
  </g>
 </g>
</svg>