<svg width="200" height="200" xmlns="http://www.w3.org/2000/svg">
 <!-- Created with Method Draw - http://github.com/duopixel/Method-Draw/ -->

 <g>
  <title>background</title>
  <rect fill="#fff" id="canvas_background" height="202" width="202" y="-1" x="-1"/>
  <g display="none" overflow="visible" y="0" x="0" height="100%" width="100%" id="canvasGrid">
   <rect fill="url(#gridpattern)" stroke-width="0" y="0" x="0" height="100%" width="100%"/>
  </g>
 </g>
 <g>
  <title>Layer 1</title>
  <defs>
   <style type="text/css"/>
  </defs>
  <g stroke="null" id="svg_5">
   <path stroke="null" id="svg_4" fill="#8a8a8a" p-id="3610" d="m99.888958,0c-55.060744,0 -99.888958,44.805505 -99.888958,99.838356s44.828214,99.838356 99.888958,99.838356s99.888958,-44.805505 99.888958,-99.838356s-44.828214,-99.838356 -99.888958,-99.838356zm-51.162637,168.020649c0,-28.246951 22.901372,-51.136719 51.162637,-51.136719s51.162637,22.889768 51.162637,51.136719c-14.130634,10.714359 -32.159372,17.045572 -51.162637,17.045572s-37.032003,-6.331212 -51.162637,-17.045572zm29.235793,-87.662947c0,-12.175411 9.745265,-21.915737 21.926845,-21.915737s21.926845,9.740326 21.926845,21.915737s-9.745265,21.915737 -21.926845,21.915737s-21.926845,-9.740328 -21.926845,-21.915737zm86.245588,75.000521c-4.385369,-21.915737 -19.490528,-39.935342 -39.955583,-48.214621c7.308948,-6.81823 11.694317,-16.07154 11.694317,-26.7859c0,-19.967672 -16.566951,-36.526228 -36.544741,-36.526228s-36.544741,16.558556 -36.544741,36.526228c0,10.714359 4.385369,19.96767 11.694317,26.7859c-20.465055,8.279279 -35.570216,26.298884 -39.955585,48.214621c-12.668842,-15.097507 -20.952317,-34.091145 -20.952317,-55.519867c0,-46.753572 38.493793,-85.227865 85.271061,-85.227865s86.245588,38.474293 86.245588,85.227865c0,21.428721 -7.796211,40.42236 -20.952317,55.519867z"/>
  </g>
 </g>
</svg>